  <svg xmlns="http://www.w3.org/2000/svg">
    <symbol  viewBox="0 0 24 24" fill="none" id="home">
      <path fill-rule="evenodd" clip-rule="evenodd"
        d="M21.45 10.275 12 3.187l-9.45 7.088.45 1.35h.75v8.625h16.5v-8.625H21l.45-1.35ZM5.25 18.75v-8.625L12 5.062l6.75 5.063v8.625H15v-4.417l-.75-.75h-4.5l-.75.75v4.417H5.25Zm5.25 0h3v-3.667h-3v3.667Z"
        fill="#080341" />
    </symbol>
    <symbol  viewBox="0 0 192 192" fill="none" id="gallery">
      <path stroke="#000" stroke-miterlimit="10" stroke-width="12"
        d="M55.6 158c16.3-21.6 32.6-43.1 48.9-64.7.4-.6 4.4-5.6 11.2-5.5 6.3.1 10 4.5 10.5 5.2 11.2 13.5 22.3 27 33.5 40.5m-58.9-35.3c-5.1-8.1-10.2-16.4-15.3-24.5-.3-.5-4.3-6.5-11.7-6.4-7.2.1-11.1 5.8-11.4 6.3-10.9 18.3-21.9 36.5-32.8 54.9M170 96c0 40.9-33.1 74-74 74s-74-33.1-74-74 33.1-74 74-74 74 33.1 74 74Zm-45.6-47.1c7.1 0 13 5.8 13 13s-5.8 12.9-13 12.9c-7.1 0-13-5.8-13-12.9 0-7.1 5.9-13 13-13Z" />
    </symbol>
    <symbol  viewBox="0 0 1024 1024" id="smile">
      <path
        d="M324.8 440c34.4 0 62.4-28 62.4-62.4s-28-62.4-62.4-62.4-62.4 28-62.4 62.4 28 62.4 62.4 62.4zm374.4 0c34.4 0 62.4-28 62.4-62.4s-28-62.4-62.4-62.4-62.4 28-62.4 62.4 28 62.4 62.4 62.4zM340 709.6c44 34.4 100.8 55.2 172 55.2s128-20.8 172-55.2c26.4-21.6 42.4-42.4 50.4-58.4 6.4-12 .8-27.2-11.2-33.6s-27.2-.8-33.6 11.2c-.8 1.6-3.2 6.4-8 12-7.2 10.4-17.6 20-28.8 29.6-34.4 28-80.8 44.8-140.8 44.8s-105.6-16.8-140.8-44.8c-12-9.6-21.6-20-28.8-29.6-4-5.6-7.2-9.6-8-12-6.4-12-20.8-17.6-33.6-11.2s-17.6 20.8-11.2 33.6c8 16 24 36.8 50.4 58.4z" />
      <path
        d="M512 1010.4C235.2 1010.4 9.6 784.8 9.6 508S235.2 5.6 512 5.6s502.4 225.6 502.4 502.4-225.6 502.4-502.4 502.4zm0-956.8c-250.4 0-454.4 204-454.4 454.4s204 454.4 454.4 454.4 454.4-204 454.4-454.4S762.4 53.6 512 53.6z" />
    </symbol>
  </svg>